<svg xmlns="http://www.w3.org/2000/svg" viewBox="0 0 500 500" width="500" height="500" preserveAspectRatio="xMidYMid meet" style="width: 100%; height: 100%; transform: translate3d(0px, 0px, 0px);"><defs><clipPath id="__lottie_element_57"><rect width="500" height="500" x="0" y="0"></rect></clipPath><clipPath id="__lottie_element_62"><path d="M0,0 L500,0 L500,500 L0,500z"></path></clipPath><clipPath id="__lottie_element_66"><path d="M0,0 L500,0 L500,500 L0,500z"></path></clipPath><clipPath id="__lottie_element_67"><path fill="#ffffff" clip-rule="nonzero" d=" M262.35198974609375,180.5 C262.35198974609375,180.5 131.5,180.5 131.5,180.5 C120.4540023803711,180.5 111.5,189.45399475097656 111.5,200.5 C111.5,200.5 111.5,268.7330017089844 111.5,268.7330017089844 C111.5,268.7330017089844 111,278.96600341796875 111,278.96600341796875 C111,278.96600341796875 282.22698974609375,278.96600341796875 282.22698974609375,278.96600341796875 C282.22698974609375,278.96600341796875 282.25,283 282.2049865722656,269.2330017089844 C282.2049865722656,269.2330017089844 282.35198974609375,200.5 282.35198974609375,200.5 C282.35198974609375,189.45399475097656 273.39801025390625,180.5 262.35198974609375,180.5" fill-opacity="1"></path></clipPath><filter id="__lottie_element_70" filterUnits="objectBoundingBox" x="0%" y="0%" width="100%" height="100%"><feComponentTransfer in="SourceGraphic"><feFuncA type="table" tableValues="1.0 0.0"></feFuncA></feComponentTransfer></filter><mask id="__lottie_element_69" mask-type="alpha"><g filter="url(#__lottie_element_70)"><rect width="500" height="500" x="0" y="0" fill="#ffffff" opacity="0"></rect><g clip-path="url(#__lottie_element_71)" style="display: block;" transform="matrix(1,0,0,1,0,0)" opacity="1"><g mask="url(#__lottie_element_74)" style="display: block;"><g mask="url(#__lottie_element_78)" transform="matrix(2.292680025100708,0,0,2.292680025100708,108.29286193847656,176.0001220703125)" opacity="1"><g opacity="1" transform="matrix(1,0,0,1,99.31600189208984,27.881999969482422)"><path fill="rgb(255,123,58)" fill-opacity="1" d=" M21.25,13.50100040435791 C21.049999237060547,11.211000442504883 20.579999923706055,9.020000457763672 18.65999984741211,7.400000095367432 C17.790000915527344,6.659999847412109 16.899999618530273,5.929999828338623 16.09000015258789,5.119999885559082 C9.420000076293945,-1.4600000381469727 2.7799999713897705,-8.0600004196167 -3.759999990463257,-14.770000457763672 C-5.210000038146973,-16.260000228881836 -6.900000095367432,-17.099000930786133 -8.90999984741211,-17.16900062561035 C-12.609999656677246,-17.288999557495117 -21.200000762939453,-17.299999237060547 -21.200000762939453,-17.299999237060547 C-21.200000762939453,-17.299999237060547 -21.292999267578125,17.20800018310547 -21.292999267578125,17.20800018310547 C-21.292999267578125,17.20800018310547 18.31100082397461,17.26799964904785 20.139999389648438,17.290000915527344 C20.93000030517578,17.299999237060547 21.299999237060547,17.0310001373291 21.280000686645508,16.22100067138672 C21.239999771118164,15.310999870300293 21.329999923706055,14.401000022888184 21.25,13.50100040435791z M9.920000076293945,7.690000057220459 C9.8100004196167,8.020000457763672 9.140000343322754,8.34000015258789 8.710000038146973,8.350000381469727 C5.179999828338623,8.399999618530273 -8.550000190734863,8.480999946594238 -11.899999618530273,8.470999717712402 C-13.960000038146973,8.470999717712402 -14.1899995803833,8.229999542236328 -14.1899995803833,6.210000038146973 C-14.1899995803833,6.210000038146973 -14.1899995803833,-8.718999862670898 -14.1899995803833,-8.718999862670898 C-14.1899995803833,-10.519000053405762 -13.880000114440918,-10.6899995803833 -12.119999885559082,-10.850000381469727 C-9.680000305175781,-11.079999923706055 -7.809999942779541,-10.39900016784668 -6.070000171661377,-8.548999786376953 C-3.200000047683716,-5.499000072479248 -0.03999999910593033,-2.7100000381469727 2.990000009536743,0.1899999976158142 C5.150000095367432,2.240000009536743 7.309999942779541,4.290999889373779 9.430000305175781,6.390999794006348 C9.75,6.701000213623047 10.039999961853027,7.349999904632568 9.920000076293945,7.690000057220459z"></path></g><g opacity="1" transform="matrix(1,0,0,1,60.30500030517578,57.85200119018555)"><path fill="rgb(255,123,58)" fill-opacity="1" d=" M0.06700000166893005,-9.300000190734863 C19.625,-9.300000190734863 39.183998107910156,-9.300000190734863 58.742000579833984,-9.300000190734863 C60.29600143432617,-9.300000190734863 60.29899978637695,-9.298999786376953 60.29999923706055,-7.760000228881836 C60.301998138427734,-4.078000068664551 60.310001373291016,-0.3959999978542328 60.297000885009766,3.2860000133514404 C60.28499984741211,6.9070000648498535 57.922000885009766,9.253999710083008 54.2859992980957,9.27400016784668 C52.83399963378906,9.281000137329102 51.38100051879883,9.277000427246094 49.928001403808594,9.276000022888184 C48.470001220703125,9.274999618530273 48.49800109863281,9.265999794006348 48.1150016784668,7.874000072479248 C46.32600021362305,1.3619999885559082 42.095001220703125,-2.7179999351501465 35.525001525878906,-4.081999778747559 C27.079999923706055,-5.835000038146973 18.93199920654297,-0.5289999842643738 16.81599998474121,7.8420000076293945 C16.454999923706055,9.272000312805176 16.454999923706055,9.274999618530273 14.954999923706055,9.276000022888184 C5.434999942779541,9.277000427246094 -4.084000110626221,9.26200008392334 -13.604000091552734,9.295999526977539 C-14.623000144958496,9.300000190734863 -15.036999702453613,8.982999801635742 -15.277000427246094,7.973999977111816 C-18.049999237060547,-3.703000068664551 -32.125999450683594,-8.319000244140625 -41.31399917602539,-0.5989999771118164 C-44.099998474121094,1.7410000562667847 -45.83399963378906,4.710999965667725 -46.6349983215332,8.229000091552734 C-46.81399917602539,9.015000343322754 -47.154998779296875,9.29800033569336 -47.94900131225586,9.284000396728516 C-50.17900085449219,9.246999740600586 -52.4109992980957,9.293000221252441 -54.64099884033203,9.269000053405762 C-57.81700134277344,9.234999656677246 -60.257999420166016,6.817999839782715 -60.2859992980957,3.634000062942505 C-60.31999969482422,-0.2549999952316284 -60.29800033569336,-4.144999980926514 -60.29399871826172,-8.034000396728516 C-60.292999267578125,-9.223999977111816 -60.21099853515625,-9.298999786376953 -58.99700164794922,-9.298999786376953 C-39.308998107910156,-9.300000190734863 -19.621000289916992,-9.300000190734863 0.06700000166893005,-9.300000190734863z"></path></g><g opacity="1" transform="matrix(1,0,0,1,92.77100372314453,69.51899719238281)"><path fill="rgb(255,123,58)" fill-opacity="1" d=" M-0.04699999839067459,11.960000038146973 C-6.750999927520752,11.954000473022461 -11.984999656677246,6.710999965667725 -11.97599983215332,0.009999999776482582 C-11.968000411987305,-6.500999927520752 -6.672999858856201,-11.954999923706055 -0.35499998927116394,-11.960000038146973 C6.671999931335449,-11.965999603271484 11.984999656677246,-6.770999908447266 11.97700023651123,0.10000000149011612 C11.968999862670898,6.756999969482422 6.688000202178955,11.965999603271484 -0.04699999839067459,11.960000038146973z M-6.124000072479248,-0.010999999940395355 C-6.13700008392334,3.4130001068115234 -3.381999969482422,6.204999923706055 0.007000000216066837,6.201000213623047 C3.368000030517578,6.197999954223633 6.117000102996826,3.430000066757202 6.122000217437744,0.0430000014603138 C6.127999782562256,-3.3429999351501465 3.390000104904175,-6.111999988555908 0.02500000037252903,-6.125 C-3.3410000801086426,-6.13700008392334 -6.111000061035156,-3.382999897003174 -6.124000072479248,-0.010999999940395355z"></path></g><g opacity="1" transform="matrix(1,0,0,1,29.384000778198242,69.45700073242188)"><path fill="rgb(255,123,58)" fill-opacity="1" d=" M-11.989999771118164,0.06599999964237213 C-12.145000457763672,-6.1479997634887695 -6.836999893188477,-11.748000144958496 -0.6499999761581421,-11.897000312805176 C6.310999870300293,-12.0649995803833 11.776000022888184,-7.0279998779296875 11.96399974822998,-0.26899999380111694 C12.145999908447266,6.23199987411499 7.0289998054504395,11.741000175476074 0.8240000009536743,12.04800033569336 C-6.364999771118164,12.404000282287598 -12.003999710083008,6.864999771118164 -11.989999771118164,0.06599999964237213z M0.006000000052154064,6.263000011444092 C3.2780001163482666,6.276000022888184 6.099999904632568,3.4709999561309814 6.13700008392334,0.17100000381469727 C6.173999786376953,-3.190000057220459 3.4189999103546143,-6.031000137329102 0.08799999952316284,-6.065000057220459 C-3.311000108718872,-6.098999977111816 -6.125,-3.3480000495910645 -6.172999858856201,0.054999999701976776 C-6.218999862670898,3.4010000228881836 -3.384000062942505,6.249000072479248 0.006000000052154064,6.263000011444092z"></path></g><g opacity="1" transform="matrix(1,0,0,1,39.638999938964844,22.586999893188477)"><path fill="rgb(255,123,58)" fill-opacity="1" d=" M-33.83399963378906,-22.586999893188477 C-33.83399963378906,-22.586999893188477 33.404998779296875,-22.586999893188477 33.404998779296875,-22.586999893188477 C36.847999572753906,-22.586999893188477 39.638999938964844,-19.79599952697754 39.638999938964844,-16.35300064086914 C39.638999938964844,-16.35300064086914 39.638999938964844,22.586000442504883 39.638999938964844,22.586000442504883 C39.638999938964844,22.586000442504883 -39.638999938964844,22.586000442504883 -39.638999938964844,22.586000442504883 C-39.638999938964844,22.586000442504883 -39.638999938964844,-16.781999588012695 -39.638999938964844,-16.781999588012695 C-39.638999938964844,-19.988000869750977 -37.040000915527344,-22.586999893188477 -33.83399963378906,-22.586999893188477z"></path></g></g></g></g></g></mask><clipPath id="__lottie_element_71"><path d="M0,0 L500,0 L500,500 L0,500z"></path></clipPath><mask id="__lottie_element_75"><rect fill="#ffffff" width="500" height="500" transform="matrix(0.436170756816864,0,0,0.436170756816864,-47.23418045043945,-76.76610565185547)"></rect><path fill="#000000" clip-rule="nonzero" d=" M87.30790710449219,22.74742317199707 C83.44990539550781,19.345422744750977 71.42890930175781,8.74542236328125 62.17790985107422,0.5734222531318665 C55.736907958984375,0.5624222159385681 49.31690979003906,0.5734222531318665 43.68490982055664,0.5734222531318665 C52.93690872192383,8.74542236328125 64.9569091796875,19.345422744750977 68.81591033935547,22.74742317199707 C69.44790649414062,23.307422637939453 69.44790649414062,24.396421432495117 68.81591033935547,24.956422805786133 C64.74990844726562,28.545421600341797 51.701908111572266,40.02642059326172 43.944908142089844,46.840423583984375 C49.34790802001953,46.85142135620117 55.63290786743164,46.85142135620117 62.39590835571289,46.86142349243164 C70.15290832519531,40.067420959472656 83.2319107055664,28.545421600341797 87.30790710449219,24.956422805786133 C87.94091033935547,24.396421432495117 87.94091033935547,23.307422637939453 87.30790710449219,22.74742317199707" fill-opacity="1"></path><path fill="#000000" clip-rule="nonzero" d=" M56.53226852416992,22.754915237426758 C52.67426681518555,19.352914810180664 40.65326690673828,8.752915382385254 31.40226936340332,0.5809152722358704 C24.96126937866211,0.569915235042572 18.541269302368164,0.5809152722358704 12.909268379211426,0.5809152722358704 C22.16126823425293,8.752915382385254 34.18126678466797,19.352914810180664 38.04026794433594,22.754915237426758 C38.67226791381836,23.31491470336914 38.67226791381836,24.403915405273438 38.04026794433594,24.96391487121582 C33.97426986694336,28.552915573120117 20.92626953125,40.03391647338867 13.169268608093262,46.84791564941406 C18.572269439697266,46.85891342163086 24.857269287109375,46.85891342163086 31.620267868041992,46.86891555786133 C39.37726974487305,40.07491683959961 52.456268310546875,28.552915573120117 56.53226852416992,24.96391487121582 C57.16526794433594,24.403915405273438 57.16526794433594,23.31491470336914 56.53226852416992,22.754915237426758" fill-opacity="1"></path><path fill="#000000" clip-rule="nonzero" d=" M24.83370590209961,22.817790985107422 C20.975706100463867,19.41579246520996 8.954705238342285,8.815792083740234 -0.29629433155059814,0.643791675567627 C-6.7372941970825195,0.6327916979789734 -13.157294273376465,0.643791675567627 -18.789295196533203,0.643791675567627 C-9.537294387817383,8.815792083740234 2.482705593109131,19.41579246520996 6.341705799102783,22.817790985107422 C6.973705768585205,23.377792358398438 6.973705768585205,24.4667911529541 6.341705799102783,25.026792526245117 C2.275705575942993,28.61579132080078 -10.772294044494629,40.0967903137207 -18.529294967651367,46.91079330444336 C-13.126294136047363,46.921791076660156 -6.841294288635254,46.921791076660156 -0.07829432934522629,46.931793212890625 C7.67870569229126,40.13779067993164 20.757705688476562,28.61579132080078 24.83370590209961,25.026792526245117 C25.466705322265625,24.4667911529541 25.466705322265625,23.377792358398438 24.83370590209961,22.817790985107422" fill-opacity="1"></path><path fill="#000000" clip-rule="nonzero" d=" M117.51502990722656,22.741291046142578 C113.65702819824219,19.339290618896484 101.63603210449219,8.739290237426758 92.3850326538086,0.5672903060913086 C85.94403076171875,0.556290328502655 79.52403259277344,0.5672903060913086 73.89202880859375,0.5672903060913086 C83.14402770996094,8.739290237426758 95.16403198242188,19.339290618896484 99.02303314208984,22.741291046142578 C99.655029296875,23.30129051208496 99.655029296875,24.390291213989258 99.02303314208984,24.95029067993164 C94.95703125,28.539289474487305 81.90902709960938,40.02029037475586 74.15203094482422,46.83428955078125 C79.5550308227539,46.84529113769531 85.84002685546875,46.84529113769531 92.60302734375,46.855289459228516 C100.36003112792969,40.0612907409668 113.43903350830078,28.539289474487305 117.51502990722656,24.95029067993164 C118.14803314208984,24.390291213989258 118.14803314208984,23.30129051208496 117.51502990722656,22.741291046142578" fill-opacity="1"></path><path fill="#000000" clip-rule="nonzero" d=" M121.73600006103516,22.729999542236328 C117.87799835205078,19.327999114990234 105.85700225830078,8.727999687194824 96.60600280761719,0.5559999942779541 C90.16500091552734,0.5450000166893005 83.74500274658203,0.5559999942779541 78.11299896240234,0.5559999942779541 C87.36499786376953,8.727999687194824 99.38500213623047,19.327999114990234 103.24400329589844,22.729999542236328 C103.8759994506836,23.290000915527344 103.8759994506836,24.378999710083008 103.24400329589844,24.93899917602539 C99.1780014038086,28.527999877929688 86.12999725341797,40.00899887084961 78.37300109863281,46.823001861572266 C83.7760009765625,46.83399963378906 90.06099700927734,46.83399963378906 96.8239974975586,46.84400177001953 C104.58100128173828,40.04999923706055 117.66000366210938,28.527999877929688 121.73600006103516,24.93899917602539 C122.36900329589844,24.378999710083008 122.36900329589844,23.290000915527344 121.73600006103516,22.729999542236328" fill-opacity="1"></path><path fill="#ffffff" clip-rule="nonzero" d="M0,0  h500 v500 h-500 v-500  M6.304999828338623,0.5 C6.304999828338623,0.5 73.54399871826172,0.5 73.54399871826172,0.5 C76.98699951171875,0.5 79.77799987792969,3.2909998893737793 79.77799987792969,6.734000205993652 C79.77799987792969,6.734000205993652 79.77799987792969,45.67300033569336 79.77799987792969,45.67300033569336 C79.77799987792969,45.67300033569336 0.5,45.67300033569336 0.5,45.67300033569336 C0.5,45.67300033569336 0.5,6.304999828338623 0.5,6.304999828338623 C0.5,3.0989999771118164 3.0989999771118164,0.5 6.304999828338623,0.5" fill-opacity="1"></path></mask><mask mask-type="alpha" id="__lottie_element_78_6"><path fill="#ffffff" clip-rule="nonzero" d=" M6.605999946594238,0.5270000100135803 C6.605999946594238,0.5270000100135803 72.59200286865234,0.5270000100135803 72.59200286865234,0.5270000100135803 C75.97100067138672,0.5270000100135803 78.70999908447266,3.3310000896453857 78.70999908447266,6.789999961853027 C78.70999908447266,6.789999961853027 78.70999908447266,45.90700149536133 78.70999908447266,45.90700149536133 C78.70999908447266,45.90700149536133 0.9089999794960022,45.90700149536133 0.9089999794960022,45.90700149536133 C0.9089999794960022,45.90700149536133 0.9089999794960022,6.359000205993652 0.9089999794960022,6.359000205993652 C0.9089999794960022,3.138000011444092 3.4600000381469727,0.5270000100135803 6.605999946594238,0.5270000100135803" fill-opacity="1"></path></mask><mask id="__lottie_element_78"><g mask="url(#__lottie_element_78_6)"><rect fill="#ffffff" width="500" height="500" transform="matrix(0.436170756816864,0,0,0.436170756816864,-47.23418045043945,-76.76610565185547)"></rect><path fill="#000000" clip-rule="nonzero" d=" M87.30790710449219,22.74742317199707 C83.44990539550781,19.345422744750977 71.42890930175781,8.74542236328125 62.17790985107422,0.5734222531318665 C55.736907958984375,0.5624222159385681 49.31690979003906,0.5734222531318665 43.68490982055664,0.5734222531318665 C52.93690872192383,8.74542236328125 64.9569091796875,19.345422744750977 68.81591033935547,22.74742317199707 C69.44790649414062,23.307422637939453 69.44790649414062,24.396421432495117 68.81591033935547,24.956422805786133 C64.74990844726562,28.545421600341797 51.701908111572266,40.02642059326172 43.944908142089844,46.840423583984375 C49.34790802001953,46.85142135620117 55.63290786743164,46.85142135620117 62.39590835571289,46.86142349243164 C70.15290832519531,40.067420959472656 83.2319107055664,28.545421600341797 87.30790710449219,24.956422805786133 C87.94091033935547,24.396421432495117 87.94091033935547,23.307422637939453 87.30790710449219,22.74742317199707" fill-opacity="1"></path><path fill="#000000" clip-rule="nonzero" d=" M56.53226852416992,22.754915237426758 C52.67426681518555,19.352914810180664 40.65326690673828,8.752915382385254 31.40226936340332,0.5809152722358704 C24.96126937866211,0.569915235042572 18.541269302368164,0.5809152722358704 12.909268379211426,0.5809152722358704 C22.16126823425293,8.752915382385254 34.18126678466797,19.352914810180664 38.04026794433594,22.754915237426758 C38.67226791381836,23.31491470336914 38.67226791381836,24.403915405273438 38.04026794433594,24.96391487121582 C33.97426986694336,28.552915573120117 20.92626953125,40.03391647338867 13.169268608093262,46.84791564941406 C18.572269439697266,46.85891342163086 24.857269287109375,46.85891342163086 31.620267868041992,46.86891555786133 C39.37726974487305,40.07491683959961 52.456268310546875,28.552915573120117 56.53226852416992,24.96391487121582 C57.16526794433594,24.403915405273438 57.16526794433594,23.31491470336914 56.53226852416992,22.754915237426758" fill-opacity="1"></path><path fill="#000000" clip-rule="nonzero" d=" M24.83370590209961,22.817790985107422 C20.975706100463867,19.41579246520996 8.954705238342285,8.815792083740234 -0.29629433155059814,0.643791675567627 C-6.7372941970825195,0.6327916979789734 -13.157294273376465,0.643791675567627 -18.789295196533203,0.643791675567627 C-9.537294387817383,8.815792083740234 2.482705593109131,19.41579246520996 6.341705799102783,22.817790985107422 C6.973705768585205,23.377792358398438 6.973705768585205,24.4667911529541 6.341705799102783,25.026792526245117 C2.275705575942993,28.61579132080078 -10.772294044494629,40.0967903137207 -18.529294967651367,46.91079330444336 C-13.126294136047363,46.921791076660156 -6.841294288635254,46.921791076660156 -0.07829432934522629,46.931793212890625 C7.67870569229126,40.13779067993164 20.757705688476562,28.61579132080078 24.83370590209961,25.026792526245117 C25.466705322265625,24.4667911529541 25.466705322265625,23.377792358398438 24.83370590209961,22.817790985107422" fill-opacity="1"></path><path fill="#000000" clip-rule="nonzero" d=" M117.51502990722656,22.741291046142578 C113.65702819824219,19.339290618896484 101.63603210449219,8.739290237426758 92.3850326538086,0.5672903060913086 C85.94403076171875,0.556290328502655 79.52403259277344,0.5672903060913086 73.89202880859375,0.5672903060913086 C83.14402770996094,8.739290237426758 95.16403198242188,19.339290618896484 99.02303314208984,22.741291046142578 C99.655029296875,23.30129051208496 99.655029296875,24.390291213989258 99.02303314208984,24.95029067993164 C94.95703125,28.539289474487305 81.90902709960938,40.02029037475586 74.15203094482422,46.83428955078125 C79.5550308227539,46.84529113769531 85.84002685546875,46.84529113769531 92.60302734375,46.855289459228516 C100.36003112792969,40.0612907409668 113.43903350830078,28.539289474487305 117.51502990722656,24.95029067993164 C118.14803314208984,24.390291213989258 118.14803314208984,23.30129051208496 117.51502990722656,22.741291046142578" fill-opacity="1"></path><path fill="#000000" clip-rule="nonzero" d=" M121.73600006103516,22.729999542236328 C117.87799835205078,19.327999114990234 105.85700225830078,8.727999687194824 96.60600280761719,0.5559999942779541 C90.16500091552734,0.5450000166893005 83.74500274658203,0.5559999942779541 78.11299896240234,0.5559999942779541 C87.36499786376953,8.727999687194824 99.38500213623047,19.327999114990234 103.24400329589844,22.729999542236328 C103.8759994506836,23.290000915527344 103.8759994506836,24.378999710083008 103.24400329589844,24.93899917602539 C99.1780014038086,28.527999877929688 86.12999725341797,40.00899887084961 78.37300109863281,46.823001861572266 C83.7760009765625,46.83399963378906 90.06099700927734,46.83399963378906 96.8239974975586,46.84400177001953 C104.58100128173828,40.04999923706055 117.66000366210938,28.527999877929688 121.73600006103516,24.93899917602539 C122.36900329589844,24.378999710083008 122.36900329589844,23.290000915527344 121.73600006103516,22.729999542236328" fill-opacity="1"></path></g></mask></defs><g clip-path="url(#__lottie_element_57)"><g clip-path="url(#__lottie_element_62)" style="display: block;" transform="matrix(1.0080000162124634,0,0,1.0299999713897705,-3,-7.5)" opacity="1"><g clip-path="url(#__lottie_element_66)" style="display: block;" transform="matrix(1,0,0,1,0,0)" opacity="1"><g clip-path="url(#__lottie_element_67)"><g mask="url(#__lottie_element_69)" style="display: block;"><g transform="matrix(2.232680082321167,0,0,2.232680082321167,111.9228515625,178.46011352539062)" opacity="1"><g opacity="1" transform="matrix(1,0,0,1,99.31600189208984,27.881999969482422)"><path fill="rgb(255,123,58)" fill-opacity="1" d=" M21.25,13.50100040435791 C21.049999237060547,11.211000442504883 20.579999923706055,9.020000457763672 18.65999984741211,7.400000095367432 C17.790000915527344,6.659999847412109 16.899999618530273,5.929999828338623 16.09000015258789,5.119999885559082 C9.420000076293945,-1.4600000381469727 2.7799999713897705,-8.0600004196167 -3.759999990463257,-14.770000457763672 C-5.210000038146973,-16.260000228881836 -6.900000095367432,-17.099000930786133 -8.90999984741211,-17.16900062561035 C-12.609999656677246,-17.288999557495117 -21.200000762939453,-17.299999237060547 -21.200000762939453,-17.299999237060547 C-21.200000762939453,-17.299999237060547 -21.292999267578125,17.20800018310547 -21.292999267578125,17.20800018310547 C-21.292999267578125,17.20800018310547 18.31100082397461,17.26799964904785 20.139999389648438,17.290000915527344 C20.93000030517578,17.299999237060547 21.299999237060547,17.0310001373291 21.280000686645508,16.22100067138672 C21.239999771118164,15.310999870300293 21.329999923706055,14.401000022888184 21.25,13.50100040435791z M9.920000076293945,7.690000057220459 C9.8100004196167,8.020000457763672 9.140000343322754,8.34000015258789 8.710000038146973,8.350000381469727 C5.179999828338623,8.399999618530273 -8.550000190734863,8.480999946594238 -11.899999618530273,8.470999717712402 C-13.960000038146973,8.470999717712402 -14.1899995803833,8.229999542236328 -14.1899995803833,6.210000038146973 C-14.1899995803833,6.210000038146973 -14.1899995803833,-8.718999862670898 -14.1899995803833,-8.718999862670898 C-14.1899995803833,-10.519000053405762 -13.880000114440918,-10.6899995803833 -12.119999885559082,-10.850000381469727 C-9.680000305175781,-11.079999923706055 -7.809999942779541,-10.39900016784668 -6.070000171661377,-8.548999786376953 C-3.200000047683716,-5.499000072479248 -0.03999999910593033,-2.7100000381469727 2.990000009536743,0.1899999976158142 C5.150000095367432,2.240000009536743 7.309999942779541,4.290999889373779 9.430000305175781,6.390999794006348 C9.75,6.701000213623047 10.039999961853027,7.349999904632568 9.920000076293945,7.690000057220459z"></path></g><g opacity="1" transform="matrix(1,0,0,1,60.30500030517578,57.85200119018555)"><path fill="rgb(255,123,58)" fill-opacity="1" d=" M0.06700000166893005,-9.300000190734863 C19.625,-9.300000190734863 39.183998107910156,-9.300000190734863 58.742000579833984,-9.300000190734863 C60.29600143432617,-9.300000190734863 60.29899978637695,-9.298999786376953 60.29999923706055,-7.760000228881836 C60.301998138427734,-4.078000068664551 60.310001373291016,-0.3959999978542328 60.297000885009766,3.2860000133514404 C60.28499984741211,6.9070000648498535 57.922000885009766,9.253999710083008 54.2859992980957,9.27400016784668 C52.83399963378906,9.281000137329102 51.38100051879883,9.277000427246094 49.928001403808594,9.276000022888184 C48.470001220703125,9.274999618530273 48.49800109863281,9.265999794006348 48.1150016784668,7.874000072479248 C46.32600021362305,1.3619999885559082 42.095001220703125,-2.7179999351501465 35.525001525878906,-4.081999778747559 C27.079999923706055,-5.835000038146973 18.93199920654297,-0.5289999842643738 16.81599998474121,7.8420000076293945 C16.454999923706055,9.272000312805176 16.454999923706055,9.274999618530273 14.954999923706055,9.276000022888184 C5.434999942779541,9.277000427246094 -4.084000110626221,9.26200008392334 -13.604000091552734,9.295999526977539 C-14.623000144958496,9.300000190734863 -15.036999702453613,8.982999801635742 -15.277000427246094,7.973999977111816 C-18.049999237060547,-3.703000068664551 -32.125999450683594,-8.319000244140625 -41.31399917602539,-0.5989999771118164 C-44.099998474121094,1.7410000562667847 -45.83399963378906,4.710999965667725 -46.6349983215332,8.229000091552734 C-46.81399917602539,9.015000343322754 -47.154998779296875,9.29800033569336 -47.94900131225586,9.284000396728516 C-50.17900085449219,9.246999740600586 -52.4109992980957,9.293000221252441 -54.64099884033203,9.269000053405762 C-57.81700134277344,9.234999656677246 -60.257999420166016,6.817999839782715 -60.2859992980957,3.634000062942505 C-60.31999969482422,-0.2549999952316284 -60.29800033569336,-4.144999980926514 -60.29399871826172,-8.034000396728516 C-60.292999267578125,-9.223999977111816 -60.21099853515625,-9.298999786376953 -58.99700164794922,-9.298999786376953 C-39.308998107910156,-9.300000190734863 -19.621000289916992,-9.300000190734863 0.06700000166893005,-9.300000190734863z"></path></g><g opacity="1" transform="matrix(1,0,0,1,92.77100372314453,69.51899719238281)"><path fill="rgb(255,123,58)" fill-opacity="1" d=" M-0.04699999839067459,11.960000038146973 C-6.750999927520752,11.954000473022461 -11.984999656677246,6.710999965667725 -11.97599983215332,0.009999999776482582 C-11.968000411987305,-6.500999927520752 -6.672999858856201,-11.954999923706055 -0.35499998927116394,-11.960000038146973 C6.671999931335449,-11.965999603271484 11.984999656677246,-6.770999908447266 11.97700023651123,0.10000000149011612 C11.968999862670898,6.756999969482422 6.688000202178955,11.965999603271484 -0.04699999839067459,11.960000038146973z M-6.124000072479248,-0.010999999940395355 C-6.13700008392334,3.4130001068115234 -3.381999969482422,6.204999923706055 0.007000000216066837,6.201000213623047 C3.368000030517578,6.197999954223633 6.117000102996826,3.430000066757202 6.122000217437744,0.0430000014603138 C6.127999782562256,-3.3429999351501465 3.390000104904175,-6.111999988555908 0.02500000037252903,-6.125 C-3.3410000801086426,-6.13700008392334 -6.111000061035156,-3.382999897003174 -6.124000072479248,-0.010999999940395355z"></path></g><g opacity="1" transform="matrix(1,0,0,1,29.384000778198242,69.45700073242188)"><path fill="rgb(255,123,58)" fill-opacity="1" d=" M-11.989999771118164,0.06599999964237213 C-12.145000457763672,-6.1479997634887695 -6.836999893188477,-11.748000144958496 -0.6499999761581421,-11.897000312805176 C6.310999870300293,-12.0649995803833 11.776000022888184,-7.0279998779296875 11.96399974822998,-0.26899999380111694 C12.145999908447266,6.23199987411499 7.0289998054504395,11.741000175476074 0.8240000009536743,12.04800033569336 C-6.364999771118164,12.404000282287598 -12.003999710083008,6.864999771118164 -11.989999771118164,0.06599999964237213z M0.006000000052154064,6.263000011444092 C3.2780001163482666,6.276000022888184 6.099999904632568,3.4709999561309814 6.13700008392334,0.17100000381469727 C6.173999786376953,-3.190000057220459 3.4189999103546143,-6.031000137329102 0.08799999952316284,-6.065000057220459 C-3.311000108718872,-6.098999977111816 -6.125,-3.3480000495910645 -6.172999858856201,0.054999999701976776 C-6.218999862670898,3.4010000228881836 -3.384000062942505,6.249000072479248 0.006000000052154064,6.263000011444092z"></path></g><g opacity="1" transform="matrix(1,0,0,1,39.638999938964844,22.586999893188477)"><path fill="rgb(255,123,58)" fill-opacity="1" d=" M-39.60599899291992,-22.43899917602539 C-39.60599899291992,-22.43899917602539 80.97000122070312,-22.586000442504883 80.97000122070312,-22.586000442504883 C80.97000122070312,-22.586000442504883 80.97000122070312,58.93600082397461 80.97000122070312,58.93600082397461 C80.97000122070312,58.93600082397461 -39.638999938964844,58.93600082397461 -39.638999938964844,58.93600082397461 C-39.638999938964844,58.93600082397461 -39.60599899291992,-22.43899917602539 -39.60599899291992,-22.43899917602539z M-33.83399963378906,-22.586999893188477 C-33.83399963378906,-22.586999893188477 33.404998779296875,-22.586999893188477 33.404998779296875,-22.586999893188477 C36.847999572753906,-22.586999893188477 39.638999938964844,-19.79599952697754 39.638999938964844,-16.35300064086914 C39.638999938964844,-16.35300064086914 39.638999938964844,22.586000442504883 39.638999938964844,22.586000442504883 C39.638999938964844,22.586000442504883 -39.638999938964844,22.586000442504883 -39.638999938964844,22.586000442504883 C-39.638999938964844,22.586000442504883 -39.638999938964844,-16.781999588012695 -39.638999938964844,-16.781999588012695 C-39.638999938964844,-19.988000869750977 -37.040000915527344,-22.586999893188477 -33.83399963378906,-22.586999893188477z"></path></g></g></g></g></g></g><g style="display: block;" transform="matrix(2.1818199157714844,0,0,2.1818199157714844,106.99989318847656,204.54539489746094)" opacity="1"><g opacity="1" transform="matrix(1,0,0,1,99.31600189208984,17.299999237060547)"><path fill="rgb(255,123,58)" fill-opacity="1" d=" M23.083999633789062,13.729999542236328 C22.884000778198242,11.4399995803833 22.413999557495117,9.25 20.493999481201172,7.630000114440918 C19.624000549316406,6.889999866485596 18.733999252319336,6.159999847412109 17.923999786376953,5.349999904632568 C11.253999710083008,-1.2300000190734863 4.613999843597412,-7.829999923706055 -1.9259999990463257,-14.539999961853027 C-3.375999927520752,-16.030000686645508 -5.065999984741211,-16.8700008392334 -7.076000213623047,-16.940000534057617 C-10.776000022888184,-17.059999465942383 -19.365999221801758,-17.070999145507812 -19.365999221801758,-17.070999145507812 C-19.365999221801758,-17.070999145507812 -19.458999633789062,17.437999725341797 -19.458999633789062,17.437999725341797 C-19.458999633789062,17.437999725341797 20.145000457763672,17.49799919128418 21.974000930786133,17.520000457763672 C22.763999938964844,17.530000686645508 23.134000778198242,17.260000228881836 23.11400032043457,16.450000762939453 C23.073999404907227,15.539999961853027 23.163999557495117,14.630000114440918 23.083999633789062,13.729999542236328z M11.753999710083008,7.920000076293945 C11.644000053405762,8.25 10.973999977111816,8.569999694824219 10.543999671936035,8.579999923706055 C7.013999938964844,8.630000114440918 -6.716000080108643,8.710000038146973 -10.065999984741211,8.699999809265137 C-12.12600040435791,8.699999809265137 -12.355999946594238,8.460000038146973 -12.355999946594238,6.440000057220459 C-12.355999946594238,6.440000057220459 -12.355999946594238,-8.489999771118164 -12.355999946594238,-8.489999771118164 C-12.355999946594238,-10.289999961853027 -12.045999526977539,-10.460000038146973 -10.28600025177002,-10.619999885559082 C-7.8460001945495605,-10.850000381469727 -5.97599983215332,-10.170000076293945 -4.236000061035156,-8.319999694824219 C-1.3660000562667847,-5.269999980926514 1.7940000295639038,-2.4800000190734863 4.823999881744385,0.41999998688697815 C6.984000205993652,2.4700000286102295 9.144000053405762,4.519999980926514 11.263999938964844,6.619999885559082 C11.583999633789062,6.929999828338623 11.87399959564209,7.579999923706055 11.753999710083008,7.920000076293945z"></path></g><g opacity="1" transform="matrix(1,0,0,1,60.30500030517578,47.27000045776367)"><path fill="rgb(255,123,58)" fill-opacity="1" d=" M0.06700000166893005,-9.300000190734863 C19.625,-9.300000190734863 39.183998107910156,-9.300000190734863 58.742000579833984,-9.300000190734863 C60.29600143432617,-9.300000190734863 60.29899978637695,-9.298999786376953 60.29999923706055,-7.760000228881836 C60.301998138427734,-4.078000068664551 60.310001373291016,-0.3959999978542328 60.297000885009766,3.2860000133514404 C60.28499984741211,6.9070000648498535 57.922000885009766,9.253999710083008 54.2859992980957,9.27400016784668 C52.83399963378906,9.281000137329102 51.38100051879883,9.277000427246094 49.928001403808594,9.276000022888184 C48.470001220703125,9.274999618530273 48.49800109863281,9.265999794006348 48.1150016784668,7.874000072479248 C46.32600021362305,1.3619999885559082 42.095001220703125,-2.7179999351501465 35.525001525878906,-4.081999778747559 C27.079999923706055,-5.835000038146973 18.93199920654297,-0.5289999842643738 16.81599998474121,7.8420000076293945 C16.454999923706055,9.272000312805176 16.454999923706055,9.274999618530273 14.954999923706055,9.276000022888184 C5.434999942779541,9.277000427246094 -4.084000110626221,9.26200008392334 -13.604000091552734,9.295999526977539 C-14.623000144958496,9.300000190734863 -15.036999702453613,8.982999801635742 -15.277000427246094,7.973999977111816 C-18.049999237060547,-3.703000068664551 -32.125999450683594,-8.319000244140625 -41.31399917602539,-0.5989999771118164 C-44.099998474121094,1.7410000562667847 -45.83399963378906,4.710999965667725 -46.6349983215332,8.229000091552734 C-46.81399917602539,9.015000343322754 -47.154998779296875,9.29800033569336 -47.94900131225586,9.284000396728516 C-50.17900085449219,9.246999740600586 -52.4109992980957,9.293000221252441 -54.64099884033203,9.269000053405762 C-57.81700134277344,9.234999656677246 -60.257999420166016,6.817999839782715 -60.2859992980957,3.634000062942505 C-60.31999969482422,-0.2549999952316284 -60.29800033569336,-4.144999980926514 -60.29399871826172,-8.034000396728516 C-60.292999267578125,-9.223999977111816 -60.21099853515625,-9.298999786376953 -58.99700164794922,-9.298999786376953 C-39.308998107910156,-9.300000190734863 -19.621000289916992,-9.300000190734863 0.06700000166893005,-9.300000190734863z"></path></g><g opacity="1" transform="matrix(1,0,0,1,92.77100372314453,58.9370002746582)"><path fill="rgb(255,123,58)" fill-opacity="1" d=" M-0.04699999839067459,11.960000038146973 C-6.750999927520752,11.954000473022461 -11.984999656677246,6.710999965667725 -11.97599983215332,0.009999999776482582 C-11.968000411987305,-6.500999927520752 -6.672999858856201,-11.954999923706055 -0.35499998927116394,-11.960000038146973 C6.671999931335449,-11.965999603271484 11.984999656677246,-6.770999908447266 11.97700023651123,0.10000000149011612 C11.968999862670898,6.756999969482422 6.688000202178955,11.965999603271484 -0.04699999839067459,11.960000038146973z M-6.124000072479248,-0.010999999940395355 C-6.13700008392334,3.4130001068115234 -3.381999969482422,6.204999923706055 0.007000000216066837,6.201000213623047 C3.368000030517578,6.197999954223633 6.117000102996826,3.430000066757202 6.122000217437744,0.0430000014603138 C6.127999782562256,-3.3429999351501465 3.390000104904175,-6.111999988555908 0.02500000037252903,-6.125 C-3.3410000801086426,-6.13700008392334 -6.111000061035156,-3.382999897003174 -6.124000072479248,-0.010999999940395355z"></path></g><g opacity="1" transform="matrix(1,0,0,1,29.384000778198242,58.875)"><path fill="rgb(255,123,58)" fill-opacity="1" d=" M-11.989999771118164,0.06599999964237213 C-12.145000457763672,-6.1479997634887695 -6.836999893188477,-11.748000144958496 -0.6499999761581421,-11.897000312805176 C6.310999870300293,-12.0649995803833 11.776000022888184,-7.0279998779296875 11.96399974822998,-0.26899999380111694 C12.145999908447266,6.23199987411499 7.0289998054504395,11.741000175476074 0.8240000009536743,12.04800033569336 C-6.364999771118164,12.404000282287598 -12.003999710083008,6.864999771118164 -11.989999771118164,0.06599999964237213z M0.006000000052154064,6.263000011444092 C3.2780001163482666,6.276000022888184 6.099999904632568,3.4709999561309814 6.13700008392334,0.17100000381469727 C6.173999786376953,-3.190000057220459 3.4189999103546143,-6.031000137329102 0.08799999952316284,-6.065000057220459 C-3.311000108718872,-6.098999977111816 -6.125,-3.3480000495910645 -6.172999858856201,0.054999999701976776 C-6.218999862670898,3.4010000228881836 -3.384000062942505,6.249000072479248 0.006000000052154064,6.263000011444092z"></path></g></g></g></svg>